<?xml version="1.0" encoding="iso-8859-1"?>
<!-- Generator: Adobe Illustrator 16.0.0, SVG Export Plug-In . SVG Version: 6.00 Build 0)  -->
<!DOCTYPE svg PUBLIC "-//W3C//DTD SVG 1.1//EN" "http://www.w3.org/Graphics/SVG/1.1/DTD/svg11.dtd">
<svg xmlns="http://www.w3.org/2000/svg" xmlns:xlink="http://www.w3.org/1999/xlink" version="1.1" id="Capa_1" x="0px" y="0px" width="512px" height="512px" viewBox="0 0 612 612" style="enable-background:new 0 0 612 612;" xml:space="preserve">
<g>
	<g>
		<path d="M306,0C136.994,0,0,136.994,0,306c0,169.007,136.994,306,306,306c169.007,0,306-136.993,306-306    C612,136.994,475.007,0,306,0z M306,564.188c-142.597,0-258.188-115.59-258.188-258.188c0-142.597,115.59-258.188,258.188-258.188    c142.598,0,258.188,115.59,258.188,258.188C564.188,448.598,448.598,564.188,306,564.188z" fill="#124a8d"/>
		<polygon points="325.125,191.25 420.75,191.25 420.75,286.875 459,286.875 459,153 325.125,153   " fill="#124a8d"/>
		<polygon points="191.25,191.25 286.875,191.25 286.875,153 153,153 153,286.875 191.25,286.875   " fill="#124a8d"/>
		<polygon points="191.25,325.125 153,325.125 153,459 286.875,459 286.875,420.75 191.25,420.75   " fill="#124a8d"/>
		<polygon points="420.75,420.75 325.125,420.75 325.125,459 459,459 459,325.125 420.75,325.125   " fill="#124a8d"/>
		<polygon points="346.569,373.613 373.613,346.569 333.046,306.001 373.609,265.438 346.565,238.395 306.002,278.957     265.439,238.395 238.396,265.438 278.958,306.001 238.392,346.569 265.436,373.613 306.002,333.046   " fill="#124a8d"/>
	</g>
</g>
<g>
</g>
<g>
</g>
<g>
</g>
<g>
</g>
<g>
</g>
<g>
</g>
<g>
</g>
<g>
</g>
<g>
</g>
<g>
</g>
<g>
</g>
<g>
</g>
<g>
</g>
<g>
</g>
<g>
</g>
</svg>
