<?xml version="1.0" encoding="iso-8859-1"?>
<!-- Generator: Adobe Illustrator 19.0.0, SVG Export Plug-In . SVG Version: 6.00 Build 0)  -->
<svg version="1.1" id="Capa_1" xmlns="http://www.w3.org/2000/svg" xmlns:xlink="http://www.w3.org/1999/xlink" x="0px" y="0px"
	 viewBox="0 0 512.002 512.002" style="enable-background:new 0 0 512.002 512.002;" xml:space="preserve">
<g>
	<g>
		<path d="M105,150.001c-8.271,0-15-6.729-15-15c0-12.273,15.185-22.697,31.218-7.166c5.951,5.764,15.445,5.614,21.211-0.335
			c5.764-5.95,5.614-15.446-0.336-21.21c-6.772-6.561-14.3-11.198-22.093-13.815V75.001c0-8.284-6.716-15-15-15s-15,6.716-15,15
			v17.571c-18.373,6.537-30,23.651-30,42.429c0,24.813,20.187,45,45,45c8.271,0,15,6.729,15,15c0,12.936-17.177,24.249-34.473,3.658
			c-5.327-6.343-14.788-7.167-21.134-1.839c-6.344,5.328-7.167,14.79-1.839,21.134c8.109,9.654,17.549,16.275,27.445,19.608v17.439
			c0,8.284,6.716,15,15,15s15-6.716,15-15v-17.573c0.134-0.047,0.268-0.088,0.401-0.136c17.705-6.448,29.6-23.444,29.6-42.291
			C150,170.188,129.813,150.001,105,150.001z"/>
	</g>
</g>
<g>
	<g>
		<path d="M381.839,75.531c-1.3-1.851,2.676,2.04-61.629-57.778c-8.192-10.768-20.846-17.278-34.38-17.71
			c-0.277-0.015-0.55-0.042-0.83-0.042c-0.075,0-0.147,0.01-0.221,0.011c-0.127-0.001-0.254-0.011-0.381-0.011H15
			c-8.284,0-15,6.716-15,15v482c0,8.284,6.716,15,15,15h360c8.284,0,15-6.716,15-15V101.376
			C390,92.079,387.178,83.142,381.839,75.531z M300,39.927l53.831,50.074H300V39.927z M360,482.001H30v-452h240v75
			c0,8.284,6.716,15,15,15h75V482.001z"/>
	</g>
</g>
<g>
	<g>
		<path d="M512,437.001v-332c0-24.813-20.187-45-45-45s-45,20.187-45,45v332c0,4.723-1.217,1.106,31.584,66.708
			c5.522,11.048,21.323,11.023,26.832,0C512.849,438.842,512,441.875,512,437.001z M482,433.46l-15,30l-15-30v-12.459h30V433.46z
			 M482,391.001h-30v-184h30V391.001z M482,177.001h-30v-27h30V177.001z M482,120.001h-30v-15c0-8.271,6.729-15,15-15
			s15,6.729,15,15V120.001z"/>
	</g>
</g>
<g>
	<g>
		<path d="M315,180.001H195c-8.284,0-15,6.716-15,15s6.716,15,15,15h120c8.284,0,15-6.716,15-15S323.284,180.001,315,180.001z"/>
	</g>
</g>
<g>
	<g>
		<path d="M315,240.001H195c-8.284,0-15,6.716-15,15c0,8.284,6.716,15,15,15h120c8.284,0,15-6.716,15-15
			C330,246.717,323.284,240.001,315,240.001z"/>
	</g>
</g>
<g>
	<g>
		<path d="M315,300.001H75c-8.284,0-15,6.716-15,15s6.716,15,15,15h240c8.284,0,15-6.716,15-15S323.284,300.001,315,300.001z"/>
	</g>
</g>
<g>
	<g>
		<path d="M315,362.001H75c-8.284,0-15,6.716-15,15s6.716,15,15,15h240c8.284,0,15-6.716,15-15S323.284,362.001,315,362.001z"/>
	</g>
</g>
<g>
	<g>
		<path d="M255,422.001H135c-8.284,0-15,6.716-15,15s6.716,15,15,15h120c8.284,0,15-6.716,15-15S263.284,422.001,255,422.001z"/>
	</g>
</g>
<g>
</g>
<g>
</g>
<g>
</g>
<g>
</g>
<g>
</g>
<g>
</g>
<g>
</g>
<g>
</g>
<g>
</g>
<g>
</g>
<g>
</g>
<g>
</g>
<g>
</g>
<g>
</g>
<g>
</g>
</svg>
