<?xml version="1.0" encoding="iso-8859-1"?>
<!-- Generator: Adobe Illustrator 16.0.0, SVG Export Plug-In . SVG Version: 6.00 Build 0)  -->
<!DOCTYPE svg PUBLIC "-//W3C//DTD SVG 1.1//EN" "http://www.w3.org/Graphics/SVG/1.1/DTD/svg11.dtd">
<svg xmlns="http://www.w3.org/2000/svg" xmlns:xlink="http://www.w3.org/1999/xlink" version="1.1" id="Capa_1" x="0px" y="0px" width="512px" height="512px" viewBox="0 0 377.991 377.991" style="enable-background:new 0 0 377.991 377.991;" xml:space="preserve">
<g>
	<g>
		<path d="M347.539,137.607c-4.362,0-8.43-3.547-10.06-7.592c-5.54-13.762-18.966-23.504-34.672-23.504H84.767    C38.014,106.511,0,143.517,0,188.999c0,45.479,38.014,82.481,84.767,82.481h218.041c20.656,0,37.475-16.804,37.475-37.46    c0-0.279,16.017-0.279,16.017-0.279c11.994,0,21.692-9.715,21.692-21.673v-52.799c0-11.969-9.709-21.67-21.692-21.67h-8.76    V137.607z M328.451,227.834v6.195c0,14.147-11.497,25.618-25.644,25.618H84.767c-40.258,0-72.948-31.696-72.948-70.645    c0-38.945,32.697-70.647,72.948-70.647h218.041c14.146,0,25.644,11.502,25.644,25.636V227.834z M356.299,221.924h-8.115    c-4.361,0-7.901-3.54-7.901-7.902v-56.705c0-4.359,3.54-7.899,7.901-7.899h8.115c5.448,0,9.856,4.423,9.856,9.859v52.796    C366.165,217.516,361.747,221.924,356.299,221.924z" fill="#124a8d"/>
		<path d="M78.795,135.926c-26.332,3.791-45.948,26.322-45.948,53.078c0,29.366,23.623,53.562,53.816,53.562h214.534    c4.357,0,7.896-3.539,7.896-7.896V143.35c0-4.36-3.539-7.899-7.896-7.899c-34.54,0-172.103-0.007-206.643-0.063    C90.203,135.38,83.116,135.301,78.795,135.926z M184.166,173.917c4.225,1.082,7.655-0.482,7.655-3.501c0-1.603,0-3.469,0-5.459    c0-6.043,12.9-1.254,28.79,10.603l22.449,16.826c15.879,11.908,12.979,18.402-6.449,14.498l-27.507-5.5    c-4.281-0.854-7.749,1.92-7.749,6.2c0,2.285,0,4.931,0,7.759c0,8.552-12.901,5.927-28.866-5.869l-50.767-37.588    c-15.958-11.786-13.302-17.364,5.941-12.458L184.166,173.917z" fill="#124a8d"/>
	</g>
</g>
<g>
</g>
<g>
</g>
<g>
</g>
<g>
</g>
<g>
</g>
<g>
</g>
<g>
</g>
<g>
</g>
<g>
</g>
<g>
</g>
<g>
</g>
<g>
</g>
<g>
</g>
<g>
</g>
<g>
</g>
</svg>
