<?xml version="1.0" encoding="iso-8859-1"?>
<!-- Generator: Adobe Illustrator 19.0.0, SVG Export Plug-In . SVG Version: 6.00 Build 0)  -->
<svg version="1.1" id="Capa_1" xmlns="http://www.w3.org/2000/svg" xmlns:xlink="http://www.w3.org/1999/xlink" x="0px" y="0px"
	 viewBox="0 0 512 512" style="enable-background:new 0 0 512 512;" xml:space="preserve">
<g>
	<g>
		<path d="M256,211c-7.991,0-15-7.477-15-16c0-6.286,3.965-11.953,9.866-14.103c7.706-2.805,16.674,1,24.606,10.444
			c5.328,6.343,14.79,7.167,21.134,1.839c6.343-5.328,7.167-14.79,1.839-21.133c-8.109-9.655-17.548-16.292-27.445-19.624V135
			c0-8.284-6.716-15-15-15s-15,6.716-15,15v17.572c-0.134,0.047-0.268,0.088-0.401,0.137C222.895,159.157,211,176.153,211,195
			c0,11.955,4.597,23.347,12.944,32.079C232.526,236.056,243.911,241,256,241c8.271,0,15,6.729,15,15
			c0,6.247-3.896,12.095-9.696,14.551c-6.698,2.839-14.342,0.57-21.521-6.385c-5.95-5.764-15.446-5.614-21.21,0.335
			c-5.765,5.95-5.614,15.446,0.335,21.21c6.754,6.544,14.286,11.146,22.093,13.697V317c0,8.284,6.716,15,15,15s15-6.716,15-15
			v-18.034c0.67-0.248,1.339-0.509,2.003-0.791C290.011,290.973,301,274.418,301,256C301,231.187,280.813,211,256,211z"/>
	</g>
</g>
<g>
	<g>
		<path d="M467,0H45C20.187,0,0,20.187,0,45v60c0,24.813,20.187,45,45,45h46v317c0,24.813,20.187,45,45,45c11.652,0,288.216,0,300,0
			c24.813,0,45-20.187,45-45v-60c0-8.284-6.716-15-15-15h-45V150h46c24.813,0,45-20.187,45-45V45C512,20.187,491.813,0,467,0z
			 M136,482c-8.271,0-15-6.729-15-15V90h270v317v60c0,5.258,0.915,10.305,2.58,15C387.276,482,143.993,482,136,482z M451,422v45
			c0,8.271-6.729,15-15,15s-15-6.729-15-15v-45H451z M482,105c0,8.271-6.729,15-15,15h-46V90h16c8.284,0,15-6.716,15-15
			s-6.716-15-15-15c-11.797,0-344.358,0-362,0c-8.284,0-15,6.716-15,15s6.716,15,15,15h16v30H45c-8.271,0-15-6.729-15-15V45
			c0-8.271,6.729-15,15-15h422c8.271,0,15,6.729,15,15V105z"/>
	</g>
</g>
<g>
	<g>
		<path d="M346,362H166c-8.284,0-15,6.716-15,15s6.716,15,15,15h180c8.284,0,15-6.716,15-15S354.284,362,346,362z"/>
	</g>
</g>
<g>
	<g>
		<path d="M346,422H166c-8.284,0-15,6.716-15,15s6.716,15,15,15h180c8.284,0,15-6.716,15-15S354.284,422,346,422z"/>
	</g>
</g>
<g>
</g>
<g>
</g>
<g>
</g>
<g>
</g>
<g>
</g>
<g>
</g>
<g>
</g>
<g>
</g>
<g>
</g>
<g>
</g>
<g>
</g>
<g>
</g>
<g>
</g>
<g>
</g>
<g>
</g>
</svg>
