<?xml version="1.0" encoding="iso-8859-1"?>
<!-- Generator: Adobe Illustrator 19.0.0, SVG Export Plug-In . SVG Version: 6.00 Build 0)  -->
<svg xmlns="http://www.w3.org/2000/svg" xmlns:xlink="http://www.w3.org/1999/xlink" version="1.1" id="Capa_1" x="0px" y="0px" viewBox="0 0 512 512" style="enable-background:new 0 0 512 512;" xml:space="preserve" width="512px" height="512px">
<g>
	<g>
		<path d="M480.928,412c-3.845-26.736-17.867-51.035-39.345-67.794l-11.054-152.055c-3.197-44-22.769-84.866-55.111-115.072    C346.587,50.152,309.963,33.966,271,30.648V0h-30v30.648c-38.962,3.318-75.587,19.504-104.418,46.432    c-32.341,30.206-51.914,71.072-55.111,115.071L70.417,344.206c-21.478,16.759-35.5,41.058-39.345,67.794H0v30h172.352    c7.108,39.736,41.898,70,83.648,70s76.539-30.264,83.648-70H512v-30H480.928z M111.393,194.326C116.866,119.003,180.385,60,256,60    s139.134,59.003,144.608,134.326l10.39,142.918H101.003L111.393,194.326z M256,482c-25.127,0-46.356-16.943-52.904-40h105.807    C302.356,465.057,281.127,482,256,482z M61.518,412c3.61-17.719,13.533-33.652,28.159-44.756h332.646    c14.626,11.104,24.55,27.037,28.159,44.756H61.518z" fill="#FFFFFF"/>
	</g>
</g>
<g>
</g>
<g>
</g>
<g>
</g>
<g>
</g>
<g>
</g>
<g>
</g>
<g>
</g>
<g>
</g>
<g>
</g>
<g>
</g>
<g>
</g>
<g>
</g>
<g>
</g>
<g>
</g>
<g>
</g>
</svg>
