<?xml version="1.0" encoding="iso-8859-1"?>
<!-- Generator: Adobe Illustrator 19.0.0, SVG Export Plug-In . SVG Version: 6.00 Build 0)  -->
<svg version="1.1" id="Layer_1" xmlns="http://www.w3.org/2000/svg" xmlns:xlink="http://www.w3.org/1999/xlink" x="0px" y="0px"
	 viewBox="0 0 512 512" style="enable-background:new 0 0 512 512;" xml:space="preserve">
<g>
	<g>
		<path d="M361.662,0H53.219v512h405.563V97.119L361.662,0z M370.572,51.925l36.285,36.285h-36.285V51.925z M428.364,481.583H83.636
			V30.417h256.519v88.21h88.21V481.583z"/>
	</g>
</g>
<g>
	<g>
		<path d="M294.972,101.406h-3.469v-11.11h27.393V59.878h-27.393V48.767h-30.417v11.111h-3.468
			c-19.835,0-35.972,16.137-35.972,35.972s16.137,35.972,35.972,35.972h3.468v11.11h-27.392v30.417h27.392v11.111h30.417v-11.111
			h3.469c19.835,0,35.972-16.137,35.972-35.972C330.944,117.543,314.807,101.406,294.972,101.406z M261.086,101.406h-3.468
			c-3.063,0-5.555-2.492-5.555-5.555c0-3.063,2.492-5.555,5.555-5.555h3.468V101.406z M294.972,142.934h-3.469v-11.11h3.469v0
			c3.063,0,5.555,2.492,5.555,5.555C300.527,140.441,298.035,142.934,294.972,142.934z"/>
	</g>
</g>
<g>
	<g>
		<path d="M256,206.656c-69.824,0-126.63,56.806-126.63,126.631S186.176,459.918,256,459.918s126.631-56.806,126.631-126.631
			S325.824,206.656,256,206.656z M240.791,238.279v79.799h-79.798C167.516,277.183,199.896,244.802,240.791,238.279z
			 M160.994,348.495h58.291l-41.186,41.186C169.417,377.722,163.419,363.698,160.994,348.495z M256,429.499
			c-21.049,0-40.537-6.8-56.395-18.311l71.603-71.603V238.278c45.851,7.313,81.005,47.129,81.005,95.007
			C352.214,386.338,309.053,429.499,256,429.499z"/>
	</g>
</g>
<g>
	<g>
		<rect x="108.985" y="50.67" width="91.302" height="30.417"/>
	</g>
</g>
<g>
	<g>
		<rect x="108.985" y="101.411" width="91.302" height="30.417"/>
	</g>
</g>
<g>
	<g>
		<rect x="108.985" y="152.147" width="91.302" height="30.417"/>
	</g>
</g>
<g>
</g>
<g>
</g>
<g>
</g>
<g>
</g>
<g>
</g>
<g>
</g>
<g>
</g>
<g>
</g>
<g>
</g>
<g>
</g>
<g>
</g>
<g>
</g>
<g>
</g>
<g>
</g>
<g>
</g>
</svg>
