<?xml version="1.0" encoding="iso-8859-1"?>
<!-- Generator: Adobe Illustrator 19.0.0, SVG Export Plug-In . SVG Version: 6.00 Build 0)  -->
<svg xmlns="http://www.w3.org/2000/svg" xmlns:xlink="http://www.w3.org/1999/xlink" version="1.1" id="Layer_1" x="0px" y="0px" viewBox="0 0 428.42 428.42" style="enable-background:new 0 0 428.42 428.42;" xml:space="preserve" width="512px" height="512px">
<g>
	<g>
		<g>
			<path d="M379.21,37.42h-83.527C275.945,14.521,246.742,0,214.21,0s-61.735,14.521-81.473,37.42H49.21c-4.418,0-8,3.582-8,8v375     c0,4.418,3.582,8,8,8h330c4.418,0,8-3.582,8-8v-375C387.21,41.001,383.628,37.42,379.21,37.42z M214.21,16     c50.48,0,91.55,41.069,91.55,91.55c0,40.634-27.245,76.825-66.26,88.012c-8.169,2.348-16.678,3.539-25.29,3.539     c-8.612,0-17.121-1.19-25.295-3.54c-39.01-11.185-66.255-47.376-66.255-88.01C122.66,57.069,163.729,16,214.21,16z      M241.71,332.79h6.917c-3.635,15.641-17.687,27.33-34.417,27.33s-30.782-11.689-34.417-27.33h6.917c4.418,0,8-3.582,8-8V213.324     c6.402,1.174,12.926,1.776,19.5,1.776c6.574,0,13.099-0.603,19.5-1.776V324.79C233.71,329.208,237.292,332.79,241.71,332.79z      M57.21,412.42v-359h64.098c-9.305,15.909-14.648,34.406-14.648,54.13c0,23.825,7.631,46.397,22.066,65.276     c12.732,16.651,30.321,29.349,49.983,36.246V316.79h-7.83c-4.418,0-8,3.582-8,8c0,28.304,23.026,51.33,51.33,51.33     s51.33-23.026,51.33-51.33c0-4.418-3.582-8-8-8h-7.83V209.072c19.665-6.898,37.252-19.596,49.983-36.246     c14.436-18.878,22.066-41.451,22.066-65.276c0-19.724-5.342-38.221-14.648-54.13h64.098v359H57.21z" fill="#124a8d"/>
			<path d="M214.21,178.05c38.874,0,70.5-31.626,70.5-70.5s-31.626-70.5-70.5-70.5c-38.874,0-70.5,31.626-70.5,70.5     C143.71,146.424,175.336,178.05,214.21,178.05z M214.21,53.05c30.052,0,54.5,24.449,54.5,54.5c0,30.051-24.448,54.5-54.5,54.5     s-54.5-24.449-54.5-54.5C159.71,77.499,184.158,53.05,214.21,53.05z" fill="#124a8d"/>
			<path d="M87.96,229.79h59c4.418,0,8-3.582,8-8c0-4.418-3.582-8-8-8h-59c-4.418,0-8,3.582-8,8     C79.96,226.208,83.542,229.79,87.96,229.79z" fill="#124a8d"/>
			<path d="M87.96,269.79h59c4.418,0,8-3.582,8-8c0-4.418-3.582-8-8-8h-59c-4.418,0-8,3.582-8,8     C79.96,266.208,83.542,269.79,87.96,269.79z" fill="#124a8d"/>
			<path d="M87.96,309.79h59c4.418,0,8-3.582,8-8c0-4.418-3.582-8-8-8h-59c-4.418,0-8,3.582-8,8     C79.96,306.208,83.542,309.79,87.96,309.79z" fill="#124a8d"/>
			<path d="M343.26,213.79h-59c-4.418,0-8,3.582-8,8c0,4.418,3.582,8,8,8h59c4.418,0,8-3.582,8-8     C351.26,217.372,347.678,213.79,343.26,213.79z" fill="#124a8d"/>
			<path d="M343.26,253.79h-59c-4.418,0-8,3.582-8,8c0,4.418,3.582,8,8,8h59c4.418,0,8-3.582,8-8     C351.26,257.372,347.678,253.79,343.26,253.79z" fill="#124a8d"/>
			<path d="M343.26,293.79h-59c-4.418,0-8,3.582-8,8c0,4.418,3.582,8,8,8h59c4.418,0,8-3.582,8-8     C351.26,297.372,347.678,293.79,343.26,293.79z" fill="#124a8d"/>
			<path d="M152.96,373.79h-65c-4.418,0-8,3.582-8,8c0,4.418,3.582,8,8,8h65c4.418,0,8-3.582,8-8     C160.96,377.372,157.378,373.79,152.96,373.79z" fill="#124a8d"/>
			<path d="M343.26,373.79h-67c-4.418,0-8,3.582-8,8c0,4.418,3.582,8,8,8h67c4.418,0,8-3.582,8-8     C351.26,377.372,347.678,373.79,343.26,373.79z" fill="#124a8d"/>
			<path d="M87.96,349.79h40c4.418,0,8-3.582,8-8c0-4.418-3.582-8-8-8h-40c-4.418,0-8,3.582-8,8     C79.96,346.208,83.542,349.79,87.96,349.79z" fill="#124a8d"/>
			<path d="M343.26,333.79h-40c-4.418,0-8,3.582-8,8c0,4.418,3.582,8,8,8h40c4.418,0,8-3.582,8-8     C351.26,337.372,347.678,333.79,343.26,333.79z" fill="#124a8d"/>
			<path d="M199.21,141.264h14.543c18.448,0,33.457-15.009,33.457-33.457v-0.514c0-18.448-15.009-33.457-33.457-33.457H199.21     c-4.418,0-8,3.582-8,8v51.428C191.21,137.683,194.792,141.264,199.21,141.264z M207.21,89.836h6.543     c9.626,0,17.457,7.831,17.457,17.457v0.514c0,9.626-7.831,17.457-17.457,17.457h-6.543V89.836z" fill="#124a8d"/>
		</g>
	</g>
</g>
<g>
</g>
<g>
</g>
<g>
</g>
<g>
</g>
<g>
</g>
<g>
</g>
<g>
</g>
<g>
</g>
<g>
</g>
<g>
</g>
<g>
</g>
<g>
</g>
<g>
</g>
<g>
</g>
<g>
</g>
</svg>
