<?xml version="1.0" encoding="iso-8859-1"?>
<!-- Generator: Adobe Illustrator 16.0.0, SVG Export Plug-In . SVG Version: 6.00 Build 0)  -->
<!DOCTYPE svg PUBLIC "-//W3C//DTD SVG 1.1//EN" "http://www.w3.org/Graphics/SVG/1.1/DTD/svg11.dtd">
<svg version="1.1" id="Capa_1" xmlns="http://www.w3.org/2000/svg" xmlns:xlink="http://www.w3.org/1999/xlink" x="0px" y="0px"
	 width="612.002px" height="612.002px" viewBox="0 0 612.002 612.002" style="enable-background:new 0 0 612.002 612.002;"
	 xml:space="preserve">
<g>
	<g>
		<g id="group-9svg">
			<path id="path-1_40_" d="M332.38,277.976c-4.016,0-5.696,0-8.564-2.817c-2.951-2.899-2.429-5.276-2.429-9.405V32.449
				c0-8.094,4.088-14.804,12.161-15.337L588.583,0.033c4.181-0.277,10.062,1.209,13.155,4.119c3.114,2.899,6.516,6.967,6.516,11.229
				v245.302c0,8.38-8.883,13.646-17.253,13.811l-258.313,3.483C332.585,277.976,332.482,277.976,332.38,277.976z M352.123,46.843
				v203.214l225.396-4.457V31.813L352.123,46.843z"/>
			<path id="path-2_28_" d="M14.777,288.231c-4.016,0-5.686-2.028-8.565-4.846c-2.951-2.889-2.428-7.305-2.428-11.434V53.37
				c0-8.073,4.067-14.784,12.12-15.337l214.054-14.938c4.211-0.287,10.082,1.188,13.186,4.098c3.115,2.91,6.526,6.977,6.526,11.239
				v229.094c0,8.371-8.883,15.655-17.232,15.829l-217.343,4.876C14.992,288.231,14.879,288.231,14.777,288.231z M34.52,67.723
				v188.533l184.415-3.801V54.917L34.52,67.723z"/>
			<path id="path-3_16_" d="M588.512,612.002c-0.226,0-0.451,0-0.677-0.01l-253.948-11.394c-8.217-0.368-12.5-7.141-12.5-15.367
				V351.937c0-8.473,4.672-15.357,13.146-15.378l255.034-0.625c4.365,0.379,9.642,1.608,12.53,4.497
				c2.899,2.879,6.157,6.804,6.157,10.881v245.312c0,4.2-3.893,8.206-6.926,11.105C598.449,610.476,592.466,612.002,588.512,612.002
				z M352.123,570.519l225.396,10.03V366.73l-225.396,0.554V570.519z"/>
			<path id="path-4_12_" d="M229.927,596.624c-0.235,0-0.471,0-0.707-0.021l-212.968-9.969c-8.207-0.379-12.469-7.141-12.469-15.357
				V352.705c0-8.473,4.672-15.357,13.145-15.378l214.054-0.554c3.719,0.052,9.641,1.608,12.53,4.498
				c2.899,2.879,6.157,6.803,6.157,10.88v229.095c0,4.2-3.903,8.216-6.936,11.115C239.855,595.107,233.872,596.624,229.927,596.624z
				 M34.52,556.596l184.415,8.545V367.57L34.52,368.042V556.596z"/>
		</g>
	</g>
	<g>
	</g>
	<g>
	</g>
	<g>
	</g>
	<g>
	</g>
	<g>
	</g>
	<g>
	</g>
	<g>
	</g>
	<g>
	</g>
	<g>
	</g>
	<g>
	</g>
	<g>
	</g>
	<g>
	</g>
	<g>
	</g>
	<g>
	</g>
	<g>
	</g>
</g>
<g>
</g>
<g>
</g>
<g>
</g>
<g>
</g>
<g>
</g>
<g>
</g>
<g>
</g>
<g>
</g>
<g>
</g>
<g>
</g>
<g>
</g>
<g>
</g>
<g>
</g>
<g>
</g>
<g>
</g>
</svg>
